<svg xmlns="http://www.w3.org/2000/svg" height="512" viewBox="0 0 512 512" width="512"><path d="M497 61c-8.284 0-15 6.716-15 15v30c0 24.407-21.099 45-46 45H301V91a59.608 59.608 0 0 0-8.072-30H316c8.284 0 15-6.716 15-15s-6.716-15-15-15h-75c-33.084 0-60 26.916-60 60v15c0 8.284 6.716 15 15 15h15v30H76c-24.896 0-46-20.588-46-45V76c0-8.284-6.716-15-15-15S0 67.716 0 76v30c0 24.382 11.871 46.263 31 60.283V316c0 8.284 6.716 15 15 15s15-6.716 15-15V179.516A76.502 76.502 0 0 0 76 181h15v105c0 8.284 6.716 15 15 15s15-6.716 15-15V181h30v75c0 8.284 6.716 15 15 15s15-6.716 15-15v-75h30v68.787L112.787 348H76c-8.284 0-15 6.716-15 15s6.716 15 15 15h28v28c0 8.284 6.716 15 15 15s15-6.716 15-15v-36.787l27.917-27.917A74.754 74.754 0 0 0 211 353.338V376c0 24.813-20.187 45-45 45-8.284 0-15 6.716-15 15s6.716 15 15 15c19.697 0 37.633-7.643 51.03-20.105 5.689 17.034 15.294 32.643 28.364 45.712C248.322 479.536 252.161 481 256 481s7.678-1.464 10.606-4.393c13.07-13.069 22.675-28.678 28.364-45.712C308.367 443.357 326.303 451 346 451c8.284 0 15-6.716 15-15s-6.716-15-15-15c-24.813 0-45-20.187-45-45v-22.661a74.782 74.782 0 0 0 48.944-11.955L378 370.11V407c0 8.284 6.716 15 15 15s15-6.716 15-15v-28h28c8.284 0 15-6.716 15-15s-6.716-15-15-15h-36.683c-80.933-82.853-3.441-3.607-98.317-99.213V181h30v75c0 8.284 6.716 15 15 15s15-6.716 15-15v-75h30v105c0 8.284 6.716 15 15 15s15-6.716 15-15V181h15c5.088 0 10.106-.506 15-1.484V316c0 8.284 6.716 15 15 15s15-6.716 15-15V166.283c19.119-14.013 31-35.888 31-60.283V76c0-8.284-6.716-15-15-15zM328.124 319.337c-11.244 5.382-24.444 5.936-36.45 1.029C281.818 316.337 271 323.6 271 334.251v59.323c0 17.733-5.245 34.662-15 49.012-9.755-14.351-15-31.279-15-49.012v-59.323c0-10.649-10.815-17.914-20.674-13.885-12.005 4.906-25.205 4.352-36.45-1.03l52.73-52.73A15 15 0 0 0 241 256V106c0-8.284-6.716-15-15-15h-15c0-16.542 13.458-30 30-30s30 13.458 30 30v165c0 3.978 1.581 7.793 4.394 10.607z" data-original="#000000" class="active-path" data-old_color="#000000" fill="#329F5B"/></svg>