<svg xmlns="http://www.w3.org/2000/svg" viewBox="0 0 506.543 506.543" width="512" height="512"><path d="M478.141 98.736l-9.936-25.824L450.781 94.4c-.544.688-55.648 67.776-128.144 78.128-13.76 1.968-26.608 4.528-39.024 7.392 3.408-56.368-19.6-110.144-68.48-160.208L195.821 0l-7.52 26.576c-.176.56-16.848 57.952-59.2 83.792-46.4 28.4-75.952 59.792-90.192 95.888a140.8 140.8 0 0 0-1.024 106.912 95.681 95.681 0 0 0 51.728 52.192 71.763 71.763 0 0 0 7.024 2.272 145.91 145.91 0 0 0 4.16 47.504c-8.624.752-16.864 1.136-24.576 1.136a203.949 203.949 0 0 1-62.544-8.56l-10.992 30.08a229.84 229.84 0 0 0 73.6 10.48 315.959 315.959 0 0 0 37.072-2.32 120.657 120.657 0 0 0 19.2 25.264 132.16 132.16 0 0 0 95.728 35.2 250.272 250.272 0 0 0 148.8-53.328l4.688-3.68c44-34.464 177.712-139.168 96.368-350.672zM102.013 335.808l-.256-.096a63.152 63.152 0 0 1-34.544-35.2 108.707 108.707 0 0 1 1.376-82.448c11.616-29.456 36.8-55.744 77.136-80.384a174.394 174.394 0 0 0 63.456-76.608 164.481 164.481 0 0 1 41.088 128 236.305 236.305 0 0 0-95.056 55.872 202.501 202.501 0 0 0-53.2 90.864zm260.096 88.336l-4.8 3.792c-65.072 51.536-161.376 61.376-202.096 20.656a86.884 86.884 0 0 1-7.52-8.608c65.488-14.912 145.312-53.472 227.296-142.032l-23.488-21.744c-80.16 86.608-157.232 122-218.784 134.4a114.4 114.4 0 0 1-3.792-46.096 164.8 164.8 0 0 1 48.896-96.96c32.976-32.992 81.84-53.712 149.344-63.344a247.616 247.616 0 0 0 129.6-69.584c54.336 172.848-53.088 256.976-94.656 289.52z" data-original="#000000" class="active-path" data-old_color="#000000" fill="#329F5B"/><path d="M372.157 252.784l24.464 20.624a799.707 799.707 0 0 0 20.512-25.456l-25.344-19.536a743.042 743.042 0 0 1-19.632 24.368z" data-original="#000000" class="active-path" data-old_color="#000000" fill="#329F5B"/></svg>